<svg width="68" height="16" viewBox="0 0 68 16" fill="none"
  xmlns="http://www.w3.org/2000/svg">
  <path d="M4.6 9.18L3.36 10.92V15H0.36V1.04H3.36V6.88H3.52L5.04 4.56L7.5 1.04H10.86L6.68 6.94L11.06 15H7.68L4.6 9.18ZM16.9922 15.24C16.1922 15.24 15.4722 15.12 14.8322 14.88C14.1922 14.6267 13.6455 14.2667 13.1922 13.8C12.7522 13.3333 12.4122 12.7667 12.1722 12.1C11.9322 11.4333 11.8122 10.68 11.8122 9.84C11.8122 9 11.9322 8.24667 12.1722 7.58C12.4122 6.91333 12.7522 6.34667 13.1922 5.88C13.6455 5.41333 14.1922 5.06 14.8322 4.82C15.4722 4.56667 16.1922 4.44 16.9922 4.44C17.7922 4.44 18.5122 4.56667 19.1522 4.82C19.7922 5.06 20.3322 5.41333 20.7722 5.88C21.2255 6.34667 21.5722 6.91333 21.8122 7.58C22.0522 8.24667 22.1722 9 22.1722 9.84C22.1722 10.68 22.0522 11.4333 21.8122 12.1C21.5722 12.7667 21.2255 13.3333 20.7722 13.8C20.3322 14.2667 19.7922 14.6267 19.1522 14.88C18.5122 15.12 17.7922 15.24 16.9922 15.24ZM16.9922 13.04C17.6589 13.04 18.1789 12.8333 18.5522 12.42C18.9255 12.0067 19.1122 11.42 19.1122 10.66V9.02C19.1122 8.26 18.9255 7.67333 18.5522 7.26C18.1789 6.84667 17.6589 6.64 16.9922 6.64C16.3255 6.64 15.8055 6.84667 15.4322 7.26C15.0589 7.67333 14.8722 8.26 14.8722 9.02V10.66C14.8722 11.42 15.0589 12.0067 15.4322 12.42C15.8055 12.8333 16.3255 13.04 16.9922 13.04ZM32.7244 15C32.111 15 31.6177 14.8467 31.2444 14.54C30.871 14.22 30.651 13.7667 30.5844 13.18H30.4844C30.2977 13.86 29.9244 14.3733 29.3644 14.72C28.8177 15.0667 28.1444 15.24 27.3444 15.24C26.3444 15.24 25.5377 14.9733 24.9244 14.44C24.3244 13.8933 24.0244 13.1333 24.0244 12.16C24.0244 11.08 24.4177 10.28 25.2044 9.76C25.991 9.24 27.1444 8.98 28.6644 8.98H30.3244V8.46C30.3244 7.84667 30.1777 7.38667 29.8844 7.08C29.6044 6.76 29.1244 6.6 28.4444 6.6C27.8177 6.6 27.311 6.72 26.9244 6.96C26.5377 7.2 26.2044 7.51333 25.9244 7.9L24.3044 6.46C24.651 5.87333 25.191 5.39333 25.9244 5.02C26.671 4.63333 27.6244 4.44 28.7844 4.44C30.1977 4.44 31.2977 4.76667 32.0844 5.42C32.8844 6.06 33.2844 7.03333 33.2844 8.34V12.86H34.4244V15H32.7244ZM28.4644 13.3C28.9844 13.3 29.4244 13.1733 29.7844 12.92C30.1444 12.6667 30.3244 12.3 30.3244 11.82V10.58H28.7444C27.531 10.58 26.9244 10.9867 26.9244 11.8V12.2C26.9244 12.56 27.0644 12.8333 27.3444 13.02C27.6244 13.2067 27.9977 13.3 28.4644 13.3ZM36.3366 12.7H39.4966V2.5H36.3366V0.2H42.4566V12.7H45.6166V15H36.3366V12.7ZM56.7088 15C56.0954 15 55.6021 14.8467 55.2288 14.54C54.8554 14.22 54.6354 13.7667 54.5688 13.18H54.4688C54.2821 13.86 53.9088 14.3733 53.3488 14.72C52.8021 15.0667 52.1288 15.24 51.3288 15.24C50.3288 15.24 49.5221 14.9733 48.9088 14.44C48.3088 13.8933 48.0088 13.1333 48.0088 12.16C48.0088 11.08 48.4021 10.28 49.1888 9.76C49.9754 9.24 51.1288 8.98 52.6488 8.98H54.3088V8.46C54.3088 7.84667 54.1621 7.38667 53.8688 7.08C53.5888 6.76 53.1088 6.6 52.4288 6.6C51.8021 6.6 51.2954 6.72 50.9088 6.96C50.5221 7.2 50.1888 7.51333 49.9087 7.9L48.2887 6.46C48.6354 5.87333 49.1754 5.39333 49.9087 5.02C50.6554 4.63333 51.6088 4.44 52.7688 4.44C54.1821 4.44 55.2821 4.76667 56.0688 5.42C56.8688 6.06 57.2688 7.03333 57.2688 8.34V12.86H58.4088V15H56.7088ZM52.4488 13.3C52.9688 13.3 53.4088 13.1733 53.7688 12.92C54.1288 12.6667 54.3088 12.3 54.3088 11.82V10.58H52.7288C51.5154 10.58 50.9088 10.9867 50.9088 11.8V12.2C50.9088 12.56 51.0488 12.8333 51.3288 13.02C51.6088 13.2067 51.9821 13.3 52.4488 13.3Z" fill="white"/>
  <path d="M64.9609 15.24C64.2143 15.24 63.6743 15.08 63.3409 14.76C63.0209 14.4267 62.8609 14.0333 62.8609 13.58V12.88C62.8609 12.4267 63.0209 12.04 63.3409 11.72C63.6743 11.3867 64.2143 11.22 64.9609 11.22C65.7076 11.22 66.2409 11.3867 66.5609 11.72C66.8943 12.04 67.0609 12.4267 67.0609 12.88V13.58C67.0609 14.0333 66.8943 14.4267 66.5609 14.76C66.2409 15.08 65.7076 15.24 64.9609 15.24Z" fill="#02C173"/>
</svg>
