<svg width="110" height="110" viewBox="0 0 110 110" fill="none"
  xmlns="http://www.w3.org/2000/svg">
  <g filter="url(#filter0_f_2_121)">
    <path d="M35.3194 89.7951C46.5762 70.9596 70.7876 64.4722 89.954 75.1558L89.9587 75.1477C71.1232 63.8909 64.6358 39.6795 75.3194 20.5131L75.3113 20.5084C64.0545 39.3439 39.8431 45.8313 20.6767 35.1477L20.672 35.1558C39.5075 46.4126 45.9949 70.624 35.3113 89.7904L35.3194 89.7951Z" fill="white" fill-opacity="0.6"/>
  </g>
  <g filter="url(#filter1_b_2_121)">
    <path d="M35.3194 89.7951C46.5762 70.9596 70.7876 64.4722 89.954 75.1558L89.9587 75.1477C71.1232 63.8909 64.6358 39.6795 75.3194 20.5131L75.3113 20.5084C64.0545 39.3439 39.8431 45.8313 20.6767 35.1477L20.672 35.1558C39.5075 46.4126 45.9949 70.624 35.3113 89.7904L35.3194 89.7951Z" fill="white" fill-opacity="0.2"/>
    <path d="M84.344 71.9114C68.0699 65.941 49.6642 70.8728 38.5556 84.1804C44.5261 67.9063 39.5943 49.5006 26.2867 38.3921C42.5608 44.3625 60.9665 39.4308 72.075 26.1231C66.1046 42.3972 71.0363 60.8029 84.344 71.9114Z" stroke="url(#paint0_linear_2_121)" stroke-width="1.21991"/>
  </g>
  <defs>
    <filter id="filter0_f_2_121" x="6.033" y="5.86942" width="98.5646" height="98.5646" filterUnits="userSpaceOnUse" color-interpolation-filters="sRGB">
      <feFlood flood-opacity="0" result="BackgroundImageFix"/>
      <feBlend mode="normal" in="SourceGraphic" in2="BackgroundImageFix" result="shape"/>
      <feGaussianBlur stdDeviation="7.31944" result="effect1_foregroundBlur_2_121"/>
    </filter>
    <filter id="filter1_b_2_121" x="-15.9253" y="-16.0889" width="142.481" height="142.481" filterUnits="userSpaceOnUse" color-interpolation-filters="sRGB">
      <feFlood flood-opacity="0" result="BackgroundImageFix"/>
      <feGaussianBlur in="BackgroundImage" stdDeviation="18.2986"/>
      <feComposite in2="SourceAlpha" operator="in" result="effect1_backgroundBlur_2_121"/>
      <feBlend mode="normal" in="SourceGraphic" in2="effect1_backgroundBlur_2_121" result="shape"/>
    </filter>
    <linearGradient id="paint0_linear_2_121" x1="47.3015" y1="20.7537" x2="60.5008" y2="98.064" gradientUnits="userSpaceOnUse">
      <stop stop-color="white"/>
      <stop offset="1" stop-color="white" stop-opacity="0"/>
    </linearGradient>
  </defs>
</svg>
